<mxfile host="app.diagrams.net" modified="2021-01-27T00:02:03.441Z" agent="5.0 (Macintosh; Intel Mac OS X 11_0_1) AppleWebKit/537.36 (KHTML, like Gecko) Chrome/87.0.4280.141 Safari/537.36" etag="YR01H96IKMcnRXICozzj" version="14.2.4" type="github">
  <diagram id="QuHo0EahksI5WG8cS5MH" name="Page-1">
    <mxGraphModel dx="946" dy="614" grid="1" gridSize="10" guides="1" tooltips="1" connect="1" arrows="1" fold="1" page="1" pageScale="1" pageWidth="850" pageHeight="1100" math="0" shadow="0">
      <root>
        <mxCell id="0" />
        <mxCell id="1" parent="0" />
        <mxCell id="xl8_mKh4Q-UKelTO1kNt-3" value="" style="edgeStyle=orthogonalEdgeStyle;rounded=0;orthogonalLoop=1;jettySize=auto;html=1;" edge="1" parent="1" source="xl8_mKh4Q-UKelTO1kNt-1" target="xl8_mKh4Q-UKelTO1kNt-2">
          <mxGeometry relative="1" as="geometry" />
        </mxCell>
        <mxCell id="xl8_mKh4Q-UKelTO1kNt-1" value="開始" style="ellipse;whiteSpace=wrap;html=1;" vertex="1" parent="1">
          <mxGeometry x="365" y="40" width="120" height="30" as="geometry" />
        </mxCell>
        <mxCell id="xl8_mKh4Q-UKelTO1kNt-5" value="" style="edgeStyle=orthogonalEdgeStyle;rounded=0;orthogonalLoop=1;jettySize=auto;html=1;" edge="1" parent="1" source="xl8_mKh4Q-UKelTO1kNt-2" target="xl8_mKh4Q-UKelTO1kNt-4">
          <mxGeometry relative="1" as="geometry" />
        </mxCell>
        <mxCell id="xl8_mKh4Q-UKelTO1kNt-2" value="進入報告系統" style="rounded=1;whiteSpace=wrap;html=1;" vertex="1" parent="1">
          <mxGeometry x="365" y="90" width="120" height="30" as="geometry" />
        </mxCell>
        <mxCell id="xl8_mKh4Q-UKelTO1kNt-7" value="" style="edgeStyle=orthogonalEdgeStyle;rounded=0;orthogonalLoop=1;jettySize=auto;html=1;" edge="1" parent="1" source="xl8_mKh4Q-UKelTO1kNt-4" target="xl8_mKh4Q-UKelTO1kNt-6">
          <mxGeometry relative="1" as="geometry" />
        </mxCell>
        <mxCell id="xl8_mKh4Q-UKelTO1kNt-4" value="建立主頁" style="whiteSpace=wrap;html=1;rounded=1;" vertex="1" parent="1">
          <mxGeometry x="365" y="140" width="120" height="30" as="geometry" />
        </mxCell>
        <mxCell id="xl8_mKh4Q-UKelTO1kNt-9" value="" style="edgeStyle=orthogonalEdgeStyle;rounded=0;orthogonalLoop=1;jettySize=auto;html=1;" edge="1" parent="1" source="xl8_mKh4Q-UKelTO1kNt-6" target="xl8_mKh4Q-UKelTO1kNt-8">
          <mxGeometry relative="1" as="geometry" />
        </mxCell>
        <mxCell id="xl8_mKh4Q-UKelTO1kNt-6" value="輸入預產期" style="whiteSpace=wrap;html=1;rounded=1;" vertex="1" parent="1">
          <mxGeometry x="365" y="190" width="120" height="30" as="geometry" />
        </mxCell>
        <mxCell id="xl8_mKh4Q-UKelTO1kNt-11" value="" style="edgeStyle=orthogonalEdgeStyle;rounded=0;orthogonalLoop=1;jettySize=auto;html=1;" edge="1" parent="1" source="xl8_mKh4Q-UKelTO1kNt-8" target="xl8_mKh4Q-UKelTO1kNt-10">
          <mxGeometry relative="1" as="geometry" />
        </mxCell>
        <mxCell id="xl8_mKh4Q-UKelTO1kNt-8" value="填問卷" style="rounded=1;whiteSpace=wrap;html=1;" vertex="1" parent="1">
          <mxGeometry x="365" y="240" width="120" height="30" as="geometry" />
        </mxCell>
        <mxCell id="xl8_mKh4Q-UKelTO1kNt-13" value="" style="edgeStyle=orthogonalEdgeStyle;rounded=0;orthogonalLoop=1;jettySize=auto;html=1;" edge="1" parent="1" source="xl8_mKh4Q-UKelTO1kNt-10" target="xl8_mKh4Q-UKelTO1kNt-12">
          <mxGeometry relative="1" as="geometry" />
        </mxCell>
        <mxCell id="xl8_mKh4Q-UKelTO1kNt-16" value="" style="edgeStyle=orthogonalEdgeStyle;rounded=0;orthogonalLoop=1;jettySize=auto;html=1;entryX=1;entryY=0.5;entryDx=0;entryDy=0;" edge="1" parent="1" source="xl8_mKh4Q-UKelTO1kNt-10" target="xl8_mKh4Q-UKelTO1kNt-22">
          <mxGeometry relative="1" as="geometry">
            <mxPoint x="580" y="660" as="targetPoint" />
            <Array as="points">
              <mxPoint x="550" y="320" />
              <mxPoint x="550" y="745" />
            </Array>
          </mxGeometry>
        </mxCell>
        <mxCell id="xl8_mKh4Q-UKelTO1kNt-10" value="是否合格" style="rhombus;whiteSpace=wrap;html=1;" vertex="1" parent="1">
          <mxGeometry x="353" y="290" width="145" height="60" as="geometry" />
        </mxCell>
        <mxCell id="xl8_mKh4Q-UKelTO1kNt-20" value="" style="edgeStyle=orthogonalEdgeStyle;rounded=0;orthogonalLoop=1;jettySize=auto;html=1;" edge="1" parent="1" source="xl8_mKh4Q-UKelTO1kNt-12" target="xl8_mKh4Q-UKelTO1kNt-19">
          <mxGeometry relative="1" as="geometry" />
        </mxCell>
        <mxCell id="xl8_mKh4Q-UKelTO1kNt-12" value="進行測量" style="rounded=1;whiteSpace=wrap;html=1;" vertex="1" parent="1">
          <mxGeometry x="365" y="420" width="120" height="30" as="geometry" />
        </mxCell>
        <mxCell id="xl8_mKh4Q-UKelTO1kNt-14" value="是" style="text;html=1;strokeColor=none;fillColor=none;align=center;verticalAlign=middle;whiteSpace=wrap;rounded=0;" vertex="1" parent="1">
          <mxGeometry x="425" y="380" width="40" height="20" as="geometry" />
        </mxCell>
        <mxCell id="xl8_mKh4Q-UKelTO1kNt-17" value="否" style="text;html=1;strokeColor=none;fillColor=none;align=center;verticalAlign=middle;whiteSpace=wrap;rounded=0;" vertex="1" parent="1">
          <mxGeometry x="520" y="290" width="40" height="20" as="geometry" />
        </mxCell>
        <mxCell id="xl8_mKh4Q-UKelTO1kNt-25" value="" style="edgeStyle=orthogonalEdgeStyle;rounded=0;orthogonalLoop=1;jettySize=auto;html=1;" edge="1" parent="1" source="xl8_mKh4Q-UKelTO1kNt-19" target="xl8_mKh4Q-UKelTO1kNt-24">
          <mxGeometry relative="1" as="geometry" />
        </mxCell>
        <mxCell id="xl8_mKh4Q-UKelTO1kNt-19" value="產生pdf" style="rounded=1;whiteSpace=wrap;html=1;" vertex="1" parent="1">
          <mxGeometry x="365" y="480" width="120" height="60" as="geometry" />
        </mxCell>
        <mxCell id="xl8_mKh4Q-UKelTO1kNt-22" value="結束（資料保留在資料庫）" style="ellipse;whiteSpace=wrap;html=1;" vertex="1" parent="1">
          <mxGeometry x="344" y="720" width="162" height="50" as="geometry" />
        </mxCell>
        <mxCell id="xl8_mKh4Q-UKelTO1kNt-26" value="" style="edgeStyle=orthogonalEdgeStyle;rounded=0;orthogonalLoop=1;jettySize=auto;html=1;" edge="1" parent="1" source="xl8_mKh4Q-UKelTO1kNt-24" target="xl8_mKh4Q-UKelTO1kNt-22">
          <mxGeometry relative="1" as="geometry" />
        </mxCell>
        <mxCell id="xl8_mKh4Q-UKelTO1kNt-24" value="有測量六次？" style="rhombus;whiteSpace=wrap;html=1;" vertex="1" parent="1">
          <mxGeometry x="348" y="570" width="154.5" height="80" as="geometry" />
        </mxCell>
        <mxCell id="xl8_mKh4Q-UKelTO1kNt-27" value="是" style="text;html=1;strokeColor=none;fillColor=none;align=center;verticalAlign=middle;whiteSpace=wrap;rounded=0;" vertex="1" parent="1">
          <mxGeometry x="430" y="670" width="40" height="20" as="geometry" />
        </mxCell>
        <mxCell id="xl8_mKh4Q-UKelTO1kNt-29" value="" style="endArrow=classic;html=1;exitX=0;exitY=0.5;exitDx=0;exitDy=0;entryX=0;entryY=0.5;entryDx=0;entryDy=0;" edge="1" parent="1" source="xl8_mKh4Q-UKelTO1kNt-24" target="xl8_mKh4Q-UKelTO1kNt-12">
          <mxGeometry width="50" height="50" relative="1" as="geometry">
            <mxPoint x="400" y="550" as="sourcePoint" />
            <mxPoint x="450" y="500" as="targetPoint" />
            <Array as="points">
              <mxPoint x="310" y="610" />
              <mxPoint x="310" y="510" />
              <mxPoint x="310" y="435" />
            </Array>
          </mxGeometry>
        </mxCell>
        <mxCell id="xl8_mKh4Q-UKelTO1kNt-30" value="否" style="text;html=1;strokeColor=none;fillColor=none;align=center;verticalAlign=middle;whiteSpace=wrap;rounded=0;" vertex="1" parent="1">
          <mxGeometry x="320" y="580" width="40" height="20" as="geometry" />
        </mxCell>
      </root>
    </mxGraphModel>
  </diagram>
</mxfile>
